<?xml version="1.0" encoding="UTF-8" standalone="no"?>
<!-- Created with Inkscape (http://www.inkscape.org/) -->

<svg
   xmlns:dc="http://purl.org/dc/elements/1.1/"
   xmlns:cc="http://creativecommons.org/ns#"
   xmlns:rdf="http://www.w3.org/1999/02/22-rdf-syntax-ns#"
   xmlns:svg="http://www.w3.org/2000/svg"
   xmlns="http://www.w3.org/2000/svg"
   xmlns:xlink="http://www.w3.org/1999/xlink"
   xmlns:sodipodi="http://sodipodi.sourceforge.net/DTD/sodipodi-0.dtd"
   xmlns:inkscape="http://www.inkscape.org/namespaces/inkscape"
   width="100"
   height="100"
   id="svg2"
   version="1.1"
   inkscape:version="0.48.4 r9939"
   sodipodi:docname="logo.svg"
   inkscape:export-filename="/home/jon/Repos/hubdrop/logo.png"
   inkscape:export-xdpi="900"
   inkscape:export-ydpi="900">
  <defs
     id="defs4">
    <linearGradient
       id="linearGradient4075-3"
       inkscape:collect="always">
      <stop
         id="stop4077-2"
         offset="0"
         style="stop-color:#478dc0;stop-opacity:1" />
      <stop
         style="stop-color:#0069ba;stop-opacity:1"
         offset="0.56931907"
         id="stop4110-0" />
      <stop
         id="stop4079-0"
         offset="1"
         style="stop-color:#1c5078;stop-opacity:1" />
    </linearGradient>
    <linearGradient
       y2="766.69116"
       x2="331.36414"
       y1="166.94716"
       x1="331.36414"
       gradientTransform="matrix(0.18816813,0,0,0.18816813,306.30518,390.99009)"
       gradientUnits="userSpaceOnUse"
       id="linearGradient4092-5"
       xlink:href="#linearGradient4075-3"
       inkscape:collect="always" />
    <inkscape:path-effect
       is_visible="true"
       id="path-effect3148"
       effect="spiro" />
    <inkscape:path-effect
       is_visible="true"
       id="path-effect3154"
       effect="spiro" />
    <clipPath
       clipPathUnits="userSpaceOnUse"
       id="clipPath4191">
      <path
         sodipodi:type="arc"
         style="fill:#333333;fill-opacity:0.2037037;stroke:#ffffff;stroke-width:0.2;stroke-linecap:round;stroke-linejoin:round;stroke-miterlimit:4;stroke-opacity:1;stroke-dasharray:none"
         id="path4193"
         sodipodi:cx="50"
         sodipodi:cy="50"
         sodipodi:rx="50"
         sodipodi:ry="50"
         d="M 100,50 A 50,50 0 1 1 0,50 50,50 0 1 1 100,50 z"
         transform="matrix(0.8788138,0,0,0.8788138,322.20892,411.3082)" />
    </clipPath>
  </defs>
  <sodipodi:namedview
     id="base"
     pagecolor="#ffffff"
     bordercolor="#666666"
     borderopacity="0.88235294"
     inkscape:pageopacity="1"
     inkscape:pageshadow="2"
     inkscape:zoom="2.8"
     inkscape:cx="44.141764"
     inkscape:cy="51.633723"
     inkscape:document-units="px"
     inkscape:current-layer="g4309"
     showgrid="false"
     fit-margin-top="0"
     fit-margin-left="0"
     fit-margin-right="0"
     fit-margin-bottom="0"
     inkscape:window-width="561"
     inkscape:window-height="519"
     inkscape:window-x="555"
     inkscape:window-y="358"
     inkscape:window-maximized="0"
     inkscape:showpageshadow="true"
     showborder="true"
     borderlayer="true"
     inkscape:snap-grids="true">
    <inkscape:grid
       type="xygrid"
       id="grid3397"
       empspacing="5"
       visible="true"
       enabled="true"
       snapvisiblegridlinesonly="true" />
  </sodipodi:namedview>
  <metadata
     id="metadata7">
    <rdf:RDF>
      <cc:Work
         rdf:about="">
        <dc:format>image/svg+xml</dc:format>
        <dc:type
           rdf:resource="http://purl.org/dc/dcmitype/StillImage" />
        <dc:title />
      </cc:Work>
    </rdf:RDF>
  </metadata>
  <g
     inkscape:label="Layer 1"
     inkscape:groupmode="layer"
     id="layer1"
     transform="translate(-184.74726,-297.06788)">
    <g
       transform="translate(-133.58092,-107.60958)"
       id="layer1-8"
       inkscape:label="Layer 1">
      <g
         inkscape:export-ydpi="72.070312"
         inkscape:export-xdpi="72.070312"
         inkscape:export-filename="/home/cats/Dropbox/DDU2012/DDU/Design Assets/druplicon-crystal-820.png"
         id="g4313">
        <g
           id="g4309"
           transform="translate(1.6428568,0.8571429)">
          <path
             style="fill:#333333;fill-opacity:1;stroke:none"
             d="m 316.32182,403.67628 c 0,0 0.59573,73.46003 0.59573,100.51778 0,0 20.7666,1.78908 37.83443,0.0254 -0.86052,-1.92484 -2.13567,-6.55411 -2.13567,-8.96161 0,-0.42003 -3e-5,-2.33273 0.0306,-2.73398 -4.57294,-2.80271 -16.67701,-6.81855 -17.47683,-18.90133 -0.15504,-2.34217 5.80685,-2.51315 5.8365,-0.31203 0.20177,14.98206 12.08579,16.82234 12.08579,16.82234 0,0 0.075,-2.15457 0.54101,-4.04695 0.96425,-3.91597 3.66974,-4.80442 3.66974,-4.80442 -7.3909,-2.5233 -19.23306,-13.17472 -19.23306,-27.64863 0,-16.75563 12.7733,-24.57856 15.12808,-25.8125 2.80028,-1.55866 3.10652,-2.05594 6.3523,-4.65371 1.52742,-1.2989 4.84167,-6.93192 5.28717,-11.41307 1.79618,6.32813 6.52475,10.08301 8.49767,11.44686 3.18214,2.14316 4.63292,2.47676 8.00597,4.61992 2.03656,1.29889 14.51561,9.10226 14.51561,26.3125 0,14.75255 -13.86537,26.47914 -22.23276,27.90625 3.76237,2.0472 7.13167,5.66154 7.25506,9.84883 0.18454,6.26294 -1.00465,11.23612 -1.56619,12.39784 20.00108,-0.0175 38.05969,0.83298 38.05969,0.83298 l -0.55746,-101.3162 z"
             id="path3126"
             inkscape:connector-curvature="0"
             sodipodi:nodetypes="cccscsscscscccccscscccc"
             clip-path="url(#clipPath4191)"
             transform="translate(0.50507627,0)" />
          <path
             style="fill:#333333;fill-opacity:1;stroke:none"
             d="m 349.13338,448.0101 c -6.07348,-0.006 -8.48994,5.63303 -8.50609,9.39402 1.442,14.5507 14.48937,9.41435 19.40201,5.32472 7.28513,-6.06469 10.16888,-3.42125 14.54136,0.30303 7.42449,6.32382 18.90322,6.458 19.19947,-5.71433 0.0266,-5.32335 -5.35356,-14.67875 -19.28048,-4.71866 -6.59527,4.71675 -8.2526,4.07772 -14.70339,-0.38961 -4.38608,-3.03749 -7.89218,-4.19672 -10.65288,-4.19917 z"
             id="path3126-8"
             inkscape:connector-curvature="0"
             sodipodi:nodetypes="csscsssc" />
        </g>
      </g>
    </g>
  </g>
</svg>
